<svg xmlns="http://www.w3.org/2000/svg" xmlns:xlink="http://www.w3.org/1999/xlink"><defs><style>
    .sprite-symbol-usage {display: none;}
    .sprite-symbol-usage:target {display: inline;}
  </style><symbol class="trade-type-icon" viewBox="0 0 16 16" id="asiand"><g fill="none"><path class="color1-fill" d="M6.913 8.383H.18V6.265h15.752v2.118H9.885l3.907 3.966v-.991a2.14 2.14 0 012.14-2.141v6.76H9.285c0-1.171.946-2.118 2.118-2.118h.924L6.913 8.383zM.135 12.35h8.158v2.119H.135V12.35zM15.91.203v2.14H3.944L1.803.204H15.91z" fill="#336" /><path fill="#F93" d="M4.935 5.025L.135.27v2.975l1.78 1.78z" /></g></symbol><symbol class="trade-type-icon" viewBox="0 0 16 16" id="asianu"><g fill="none"><path class="color1-fill" d="M9.795 7.797h6.025v2.118H.068V7.797h6.755l5.414-5.476h-.924A2.116 2.116 0 019.194.203h6.648v6.76c-1.194-.022-2.14-.969-2.14-2.14V3.83L9.794 7.797zM.045 1.69h8.158v2.118H.045V1.69zM15.82 15.955H1.69l2.141-2.118H15.82v2.118z" fill="#336" /><path fill="#F93" d="M4.845 11.155l-4.8 4.755v-2.997l1.78-1.758z" /></g></symbol><symbol viewBox="0 0 16 16" id="buy-price"><defs><rect id="buy-price_a" width="16" height="16" rx="2.667" /></defs><g fill="none" fill-rule="evenodd"><use fill="#F2F3F4" fill-rule="nonzero" xlink:href="#buy-price_a" /><path fill="#333" fill-rule="nonzero" d="M7.482 13v-1.067c-.577-.054-1.063-.19-1.457-.406A3.805 3.805 0 015 10.715l1.025-.952c.22.232.463.424.728.575.266.15.558.249.877.295V8.545c-.858-.178-1.473-.456-1.844-.835-.372-.379-.558-.85-.558-1.415 0-.611.191-1.11.575-1.497.383-.387.943-.622 1.679-.708V3H8.78v1.09c.455.055.854.169 1.195.343.342.174.638.408.888.702l-1.036.95a2.389 2.389 0 00-.49-.417 2.12 2.12 0 00-.694-.278v1.926c.805.185 1.399.452 1.782.8.383.348.575.82.575 1.415 0 .573-.18 1.075-.54 1.508-.361.434-.921.716-1.68.847V13H7.482zm-.683-6.752c0 .225.066.399.2.522.132.124.343.228.631.314V5.367c-.288.061-.5.168-.632.319a.82.82 0 00-.2.562zm2.63 3.41a.92.92 0 00-.148-.492c-.099-.159-.311-.288-.638-.389v1.833c.266-.077.463-.199.592-.365a.928.928 0 00.194-.586z" mask="url(#buy-price_b)" /></g></symbol><mask id="buy-price_b" fill="#fff"><use xlink:href="#buy-price_a" /></mask><symbol class="trade-type-icon" viewBox="0 0 16 16" id="call"><g fill="none"><path class="transparent" d="M0 0h16v16H0z" /><path class="color1-fill" fill="#2A3052" d="M8.721.162c0 1.13.902 2.03 1.983 2.03h1.848l-7.55 7.731v2.885l8.97-9.185v1.892c0 1.131.901 2.031 1.983 2.031V.138H8.72v.024z" /><path class="color2-fill important" fill="#F93" d="M.135 12.808v2.123h2.817l2.05-2.123z" /></g></symbol><symbol class="trade-type-icon" viewBox="0 0 16 16" id="call_barrier"><g fill="none"><path class="transparent" d="M0 0h16v16H0z" /><path class="color1-fill" fill="#2A3052" d="M7.234 9.316l5.183-5.193H10.14a1.988 1.988 0 01-1.983-1.988h7.662v5.713h-1.983V5.523L10.05 9.316h5.769v1.987H.045V9.316h7.189z" /><path class="color2-fill important" fill="#F93" d="M3.425 15.91H.045v-3.387h2.073v1.874l1.87-1.874h2.818z" /></g></symbol><symbol class="trade-type-icon" viewBox="0 0 16 16" id="calle_light"><path d="M6.671 8l3.422-4.79A.5.5 0 0110.5 3h1.79l-1.144-1.147a.5.5 0 11.708-.706l1.963 1.966a.499.499 0 010 .774l-1.963 1.966a.5.5 0 01-.708-.706L12.291 4h-1.534L7.9 8h4.6a.5.5 0 110 1H7.186l-1.28 1.79a.5.5 0 01-.76.064l-2-2A.498.498 0 013.5 8h3.171zm-.714 1h-1.25l.73.73.52-.73zm6.897-2.147a.5.5 0 01-.708-.706l1.997-2a.5.5 0 11.707.706l-1.996 2z" class="color1-fill" fill="#2A3052" /></symbol><symbol class="trade-type-icon" viewBox="0 0 16 16" id="callspread"><g fill="none"><path d="M0 0h16v16H0z" /><path class="color1-fill" fill="#2A3052" d="M0 0h6.56v1.996H0zm0 14h16v1.996H0zm15.984-7h-4.988L9 8.996h3.167l-.572.58a1.981 1.981 0 000 2.818l4.389-4.396V7z" /><path d="M7.741 0v.343a1.653 1.653 0 001.676 1.653h1.524L5.829 7.063H0v1.996h6.651l5.654-5.653V5.69H14.3V0H7.74z" fill="#F93" /></g></symbol><symbol viewBox="0 0 16 16" id="contract-completed"><path fill="#4BB4B3" fill-rule="evenodd" d="M7.758 15.515A7.758 7.758 0 107.758 0a7.758 7.758 0 000 15.515zm0-.97a6.788 6.788 0 110-13.575 6.788 6.788 0 010 13.575zM6.475 9.863l-1.668-1.67a.469.469 0 00-.668 0 .47.47 0 000 .668l1.997 2a.474.474 0 00.672 0l5.053-5.053a.47.47 0 000-.668.469.469 0 00-.668 0L6.475 9.863z" /></symbol><symbol viewBox="0 0 16 16" id="contract-pending"><path fill="#999" fill-rule="evenodd" d="M7.758 0a7.758 7.758 0 110 15.515A7.758 7.758 0 017.758 0zm0 .97a6.788 6.788 0 100 13.575 6.788 6.788 0 000-13.575zm0 1.94c.267 0 .484.216.484.484v4.364h2.91a.485.485 0 010 .97H7.758a.485.485 0 01-.485-.486V3.394c0-.268.217-.485.485-.485z" /></symbol><symbol class="trade-type-icon" viewBox="0 0 16 16" id="digitdiff"><g fill="none"><path class="transparent" d="M0 0h16v16H0z" /><path class="color1-fill" fill="#2A3052" d="M3.493.654l5.746 5.723-5.746 5.747c-.766-.789-.789-2.028 0-2.817l1.848-1.848H.045V5.476H5.5L3.493 3.47a1.973 1.973 0 010-2.816zm3.448 11.808h1.983v3.493H6.94v-3.493zM6.94.18h1.983v1.893H6.94V.18z" /><path class="color2-fill important" fill="#F93" d="M15.82 8.563h-4.305l1.848-1.848c.767-.766.767-2.028 0-2.816L10.051 7.21a.844.844 0 010 1.172l-1.826 1.825 5.138 5.138c.609-.923.474-2.343-.315-3.132l-1.69-1.69h4.44v-1.96h.022z" /></g></symbol><symbol class="trade-type-icon" viewBox="0 0 16 16" id="digiteven"><g fill="none"><path class="transparent" d="M0 0h16v16H0z" /><path class="color2-fill important" fill="#F93" d="M.135 6.49V.158h6.333V6.49H.135zm4.125-4.1H2.366v1.893H4.26V2.389zM9.6 16V9.668h6.332V16H9.6zm4.101-4.124h-1.893v1.893h1.893v-1.893z" /><path class="color1-fill" fill="#2A3052" d="M9.6.158h6.332V6.49H9.6V.158zm2.208 4.124h1.893V2.389h-1.893v1.893zM.135 16V9.668h6.333V16H.135zm4.124-4.124H2.366v1.893H4.26v-1.893z" /></g></symbol><symbol class="trade-type-icon" viewBox="0 0 16 16" id="digitmatch"><g fill="none"><path d="M0 0h16v16H0z" /><path fill="#2A3052" d="M3.556 2.231l5.666 5.724L3.556 13.7c-.756-.788-.778-2.028 0-2.816l1.822-1.848H.156V7.054h5.377L3.556 5.048a1.992 1.992 0 010-2.817zm3.377 10.231H8.89v3.47H6.933v-3.47zm0-12.304H8.89v3.56H6.933V.158z" /><path fill="#F93" d="M12.156 2.344c.755.788.755 2.05-.023 2.817l-1.466 1.487L9.289 5.25l2.867-2.907zm0 11.493L9.2 10.817l1.378-1.397 1.578 1.6c.755.788.755 2.05 0 2.817zm-1.223-4.778l1.045-1.082-.911-.923h4.622v2.005h-4.756z" /></g></symbol><symbol class="trade-type-icon" viewBox="0 0 16 16" id="digitodd"><g fill="none"><path class="transparent" d="M0 0h16v16H0z" /><path class="color2-fill important" fill="#F93" d="M11.628 7.827H4.237L7.91 2l3.718 5.827zM7.256 6.155h1.352l-.676-1.068-.676 1.068z" /><path class="color1-fill" fill="#2A3052" d="M7.46 14.86H.067L3.74 9.035l3.718 5.827zm-4.395-1.67h1.352l-.677-1.07-.676 1.068zm12.755 1.67H8.428l3.673-5.826 3.719 5.827zm-4.372-1.67H12.8l-.676-1.069-.676 1.068z" /></g></symbol><symbol class="trade-type-icon" viewBox="0 0 16 16" id="digitover"><g fill="none"><path class="transparent" d="M0 0h16v16H0z" /><path class="color2-fill important" fill="#F93" d="M6.513 12.544L3.02 15.912H.203l4.89-4.746z" /><path class="color1-fill" fill="#2A3052" d="M.045 11.034H15.82v1.925H.045v-1.925zM13.837 8.06V5.412l-5.792 5.622V8.3l4.372-4.244H9.69c-1.104 0-1.983-.875-1.983-1.925h8.113v7.875c-1.105 0-1.983-.875-1.983-1.947z" /></g></symbol><symbol class="trade-type-icon" viewBox="0 0 16 16" id="digitunder"><g fill="none"><path class="transparent" d="M0 0h16v16H0z" /><path class="color2-fill important" fill="#F93" d="M6.603 5.478L3.11 2.088H.293l4.913 4.768z" /><path class="color1-fill" fill="#2A3052" d="M.135 5.04H15.91v1.926H.135V5.04zm13.792 4.9c0-1.071.901-1.924 1.983-1.946v7.875H7.797c0-1.05.88-1.925 1.983-1.925h2.727L8.135 9.7V6.966l5.792 5.621V9.941z" /></g></symbol><symbol class="trade-type-icon" viewBox="0 0 16 16" id="expirymiss"><g fill="none"><path class="color1-fill" d="M11.628 8.36l4.124-4.123L11.606.09a2.013 2.013 0 000 2.817l.338.338H6.806v1.983h5.138l-.316.316c-.789.766-.789 2.028 0 2.817z" fill="#336" /><path d="M.045 6.287H9.69V8.27H.045V6.287zm15.775.023v1.96h-1.96l1.96-1.96zM.045 13.972H15.82v1.983H.045v-1.983z" fill="#F93" /></g></symbol><symbol class="trade-type-icon" viewBox="0 0 16 16" id="expiryrange"><g fill="none"><path class="color1-fill" d="M6.76 8.924h5.296l-.586.586c-.766.766-.766 2.028 0 2.817l4.395-4.395-4.35-4.349a2.013 2.013 0 000 2.817l.541.54H6.761v1.984z" fill="#336" /><path d="M.135.068H15.91V2.05H.135V.068zm0 13.769H15.91v1.983H.135v-1.983z" fill="#F93" /></g></symbol><symbol class="trade-type-icon" viewBox="0 0 16 16" id="expiryrangee"><g class="color1-fill" fill="#2A3052"><rect transform="rotate(180 8 5)" y="4.5" width="16" height="1" rx=".5" /><rect transform="rotate(180 8 11)" y="10.5" width="16" height="1" rx=".5" /><path d="M13.646 9.146a.5.5 0 10.708.708l1.5-1.5a.5.5 0 000-.708l-1.5-1.5a.5.5 0 10-.708.708L14.793 8l-1.147 1.146z" /><path d="M15.5 7.5h-5a.5.5 0 000 1h5a.5.5 0 100-1z" /></g></symbol><symbol viewBox="0 0 48 42" id="google-drive-active"><g fill="none" fill-rule="nonzero"><path fill="#FFCF45" d="M32.001 0H15.999l14.4 27h16.002z" /><path fill="#1CA362" d="M14.241 3.078L0 27.999 8.001 42l13.965-24.438z" /><path fill="#4686F5" d="M18.312 30l-6.858 12H40.5L48 30z" /></g></symbol><symbol viewBox="0 0 16 16" id="ic-arrow-1"><path fill-opacity=".8" fill-rule="evenodd" d="M8 9.586l5.293-5.293a1 1 0 011.414 1.414l-6 6a1 1 0 01-1.414 0l-6-6a1 1 0 011.414-1.414L8 9.586z" /></symbol><symbol viewBox="0 0 16 16" id="ic-arrow-2"><path fill="#333" fill-rule="evenodd" d="M8.707.293a1 1 0 010 1.414L3.414 7H15a1 1 0 010 2L3.414 8.999l5.293 5.294a1 1 0 01-1.414 1.414l-7-7-.073-.082a1.005 1.005 0 01-.007-.008l.08.09A1.008 1.008 0 010 8.02v-.04c0-.023.002-.046.004-.07L0 8a1.008 1.008 0 01.213-.617.97.97 0 01.08-.09l7-7a1 1 0 011.414 0z" /></symbol><symbol viewBox="0 0 16 16" id="ic-check"><g fill="none" fill-rule="evenodd"><circle cx="8" cy="8" r="8" fill="#4BBFAB" /><path fill="#FFF" fill-rule="nonzero" d="M6.5 10.793l5.646-5.647a.5.5 0 01.708.708l-6 6a.5.5 0 01-.708 0l-3-3a.5.5 0 11.708-.708L6.5 10.793z" /></g></symbol><symbol viewBox="0 0 16 16" id="ic-close"><path fill="#999" fill-rule="evenodd" d="M8 0a8 8 0 110 16A8 8 0 018 0zM5.146 5.146a.5.5 0 00-.057.638l.057.07L7.293 8l-2.147 2.146a.5.5 0 00-.057.638l.057.07a.5.5 0 00.708 0L8 8.707l2.146 2.147a.5.5 0 00.765-.638l-.057-.07L8.707 8l2.147-2.146a.5.5 0 00.057-.638l-.057-.07a.5.5 0 00-.708 0L8 7.293 5.854 5.146a.5.5 0 00-.708 0z" /></symbol><symbol viewBox="0 0 16 16" id="ic-cross"><g fill="none" fill-rule="evenodd"><circle cx="8" cy="8" r="8" fill="#E31C4B" fill-rule="nonzero" /><path stroke="#FFF" stroke-linecap="round" d="M10.5 5.5l-5 5m5 0l-5-5" /></g></symbol><symbol viewBox="0 0 16 16" id="ic-entryspot"><g fill="none" fill-rule="evenodd"><rect width="16" height="16" fill="#F2F3F4" fill-rule="nonzero" rx="2.667" /><path fill="#FF444F" fill-rule="nonzero" d="M8 12.667a4.667 4.667 0 100-9.334 4.667 4.667 0 000 9.334z" /><path fill="#FFF" d="M8 10.667a2.667 2.667 0 110-5.334 2.667 2.667 0 010 5.334z" /></g></symbol><symbol viewBox="0 0 16 16" id="ic-exitspot"><g fill="none" fill-rule="evenodd"><rect width="16" height="16" fill="#F2F3F4" fill-rule="nonzero" rx="2.667" /><path fill="#85ACB0" fill-rule="nonzero" d="M8 12.667a4.667 4.667 0 100-9.334 4.667 4.667 0 000 9.334z" /><path fill="#FFF" d="M8 10.667a2.667 2.667 0 110-5.334 2.667 2.667 0 010 5.334z" /></g></symbol><symbol viewBox="0 0 16 16" id="ic-id"><defs><rect id="ic-id_a" width="16" height="16" rx="2.667" /></defs><g fill="none" fill-rule="evenodd"><use fill="#F2F3F4" fill-rule="nonzero" xlink:href="#ic-id_a" /><path fill="#333" d="M9.333 4.667A2.667 2.667 0 0112 7.333v1.334a2.667 2.667 0 01-2.667 2.666h-2a.667.667 0 01-.666-.666V5.333c0-.368.298-.666.666-.666h2zm-4.666 0c.368 0 .666.298.666.666v5.334a.667.667 0 01-1.333 0V5.333c0-.368.298-.666.667-.666zM9.333 6H8v4h1.333c.737 0 1.334-.597 1.334-1.333V7.333C10.667 6.597 10.07 6 9.333 6z" mask="url(#ic-id_b)" /></g></symbol><mask id="ic-id_b" fill="#fff"><use xlink:href="#ic-id_a" /></mask><symbol viewBox="0 0 32 32" id="ic-logo"><g fill="none" fill-rule="evenodd"><path fill="#FFF" d="M27.314 4.683c-6.24-6.244-16.392-6.244-22.634-.002-6.24 6.24-6.24 16.396 0 22.637 6.242 6.243 16.397 6.242 22.634-.001 6.248-6.24 6.248-16.396 0-22.634" /><g fill="#2A3052"><path d="M11.368 20.323s.18 1.353 1.32 1.98l-.304-.565s.58-1.523-1.016-1.415" /><path d="M16.655 10.598c1.255.447 1.659 1.785 1.659 1.785-1.597.364-1.26-1.266-1.26-1.266l-.399-.519zm8.4 14.46c-.163.16-.324.317-.49.467-3.604 2.938-6.38 1.476-6.413 1.476-1.881-.376-2.815-.381-3.344-.734-.132-.09-.558-.318-.656-.263-.384.23-.913.347-1.456-.086a2.055 2.055 0 01-.135-.123c-.6-.597-.396-1.213-.198-1.427.139-.14-.105-.534-.105-.534s-.706-1.05-1.188-1.68c-.533-.694-.605-2.07-.611-2.088l-.007-.02c-.537-.638-.593-.834-.779-1.145-.108-.184-.274-.356-.416-.504a2.63 2.63 0 01-.25-.275c-.014-.018-.018-.045-.012-.088.05-.297.69-.954.828-1.046.17-.11.9-.553.9-.553s.41-.645 1.108-.645c.63.004 1.015-.035 2.102.32l.451.143c.758.242 1.426.529 1.956.758.45.194.811.35 1.087.423.938.246 2.59-.512 2.94-.832.572-.52.819-.87.822-1.155.005-.16-.066-.3-.228-.47-.085-.078-.193-.223-.33-.36-.021-.022-.044-.048-.072-.067-1.586-1.685-1.312-2.742-1.31-2.759.068-.758-.367-1.244-.834-1.748l-.076-.095c-.024-.022-.054-.061-.054-.061.675.11 1.135.382 2.455.53.75.08.513.073 1.112.058.825-.026 1.478-.098 1.523-.286-.08-.068-.445.02-2.197-.649-.81-.31-.94-.357-1.455-.528-.662-.223-1.381-.532-1.381-.532 2.858.75 3.793 1.043 5.1 1.061.506.01.807-.052.983-.088.186-.033.763-.164.829-.364.02-.035-.554.094-1.614-.256-3.336-1.102-3.62-1.653-5.47-2.372-.645-.25-.854-.388-2.802-.891-.893-.23-2.243-.098-2.426.017-2.529-.594-3.103-.53-3.846-.37 4.948-3.172 11.63-2.6 15.96 1.728a13.08 13.08 0 011.561 1.89l.061.092a12.676 12.676 0 012.13 7.074c0 3.42-1.333 6.635-3.753 9.058zM26.607 5.39C20.754-.463 11.239-.463 5.387 5.389c-5.85 5.85-5.85 15.371 0 21.223 5.852 5.852 15.37 5.85 21.22-.001 5.857-5.85 5.857-15.372 0-21.221z" /></g></g></symbol><symbol class="inline-icon" viewBox="0 0 16 16" id="ic-loss"><path fill="#E31C4B" d="M8 12l6-8H2z" /></symbol><symbol class="inline-icon" viewBox="0 0 16 16" id="ic-profit"><path fill="#2BC8A5" d="M8 4l6 8H2z" /></symbol><symbol viewBox="0 0 16 16" id="ic-rename"><path fill="#000" fill-rule="nonzero" d="M14.246.703a2.38 2.38 0 00-3.378 0l-9.467 9.515a.534.534 0 00-.137.235L.02 14.97a.535.535 0 00.136.52.53.53 0 00.517.137l4.495-1.252a.53.53 0 00.234-.137l9.467-9.515a2.411 2.411 0 000-3.394l-.622-.626zm-11.69 9.862l7.75-7.788 2.498 2.512-7.748 7.787-2.5-2.511zm-.498 1.006l1.996 2.007-2.761.769.765-2.776zm12.06-7.602l-.563.565-2.5-2.511.564-.566a1.322 1.322 0 011.876 0l.623.626a1.34 1.34 0 010 1.886z" /></symbol><symbol viewBox="0 0 16 16" id="ic-search"><path fill="#D6D6D6" fill-rule="evenodd" d="M6.5 12a5.5 5.5 0 100-11 5.5 5.5 0 000 11zm0-12a6.5 6.5 0 014.936 10.729l4.418 4.417a.5.5 0 01-.708.708l-4.417-4.418A6.5 6.5 0 116.5 0z" /></symbol><symbol viewBox="0 0 19 20" id="ic-stage-1"><g transform="translate(0 1)" fill="none" fill-rule="evenodd"><path fill-opacity=".4" fill="#000" fill-rule="nonzero" d="M10.402 13h-1.09V5.775l-2.185.803v-.984l3.105-1.166h.17z" /><circle stroke-opacity=".4" stroke="#000" cx="9.5" cy="9" r="9" /></g></symbol><symbol viewBox="0 0 19 20" id="ic-stage-2"><g transform="translate(0 1)" fill="none" fill-rule="evenodd"><path d="M12.43 13H6.84v-.78l2.953-3.28c.437-.497.74-.9.905-1.21a2.02 2.02 0 00.25-.964c0-.446-.135-.81-.405-1.096-.27-.285-.629-.428-1.078-.428-.54 0-.958.154-1.257.46-.299.307-.448.734-.448 1.28H6.676c0-.785.253-1.42.759-1.904.505-.484 1.182-.726 2.03-.726.793 0 1.42.208 1.88.624.462.416.692.97.692 1.66 0 .84-.535 1.84-1.605 3l-2.286 2.48h4.284V13z" fill-opacity=".4" fill="#000" fill-rule="nonzero" /><circle stroke-opacity=".4" stroke="#000" cx="9.5" cy="9" r="9" /></g></symbol><symbol viewBox="0 0 19 20" id="ic-stage-3"><g transform="translate(0 1)" fill="none" fill-rule="evenodd"><path d="M8.416 8.207h.814c.512-.008.915-.143 1.207-.404.293-.262.44-.615.44-1.06 0-1-.498-1.5-1.494-1.5-.469 0-.843.133-1.122.4-.28.268-.42.623-.42 1.064H6.759c0-.676.247-1.237.741-1.685.494-.447 1.122-.67 1.884-.67.805 0 1.435.212 1.892.638.457.426.686 1.018.686 1.776 0 .37-.12.73-.36 1.078-.24.347-.568.607-.982.779.469.148.831.395 1.087.738.256.344.384.764.384 1.26 0 .766-.25 1.373-.75 1.822-.5.45-1.15.674-1.951.674-.801 0-1.452-.217-1.954-.65-.502-.434-.753-1.006-.753-1.717h1.09c0 .45.146.809.439 1.078.293.27.685.404 1.178.404.523 0 .923-.136 1.2-.41.278-.273.417-.666.417-1.177 0-.497-.152-.877-.457-1.143-.305-.266-.744-.402-1.319-.41h-.814v-.885z" fill-opacity=".4" fill="#000" fill-rule="nonzero" /><circle stroke-opacity=".4" stroke="#000" cx="9.5" cy="9" r="9" /></g></symbol><symbol viewBox="0 0 19 20" id="ic-stage-4"><g transform="translate(0 1)" fill="none" fill-rule="evenodd"><path d="M11.416 10.135H12.6v.885h-1.184V13h-1.09v-1.98H6.441v-.64l3.82-5.911h1.155v5.666zm-3.744 0h2.654V5.95l-.129.235-2.525 3.949z" fill-opacity=".4" fill="#000" fill-rule="nonzero" /><circle stroke-opacity=".4" stroke="#000" cx="9.5" cy="9" r="9" /></g></symbol><symbol viewBox="0 0 16 16" id="ic-start"><g fill="none" fill-rule="evenodd"><path fill="#333" d="M13.648 6.904c-.053 0-.106.001-.158.005V4.234c0-.95-.774-1.724-1.724-1.724H9.09A2.354 2.354 0 006.745 0a2.354 2.354 0 00-2.346 2.51H1.724C.774 2.51 0 3.284 0 4.234V7.48a.469.469 0 00.625.442A1.416 1.416 0 012.51 9.255 1.416 1.416 0 01.625 10.59a.468.468 0 00-.625.44v3.246C0 15.226.773 16 1.724 16H4.97a.469.469 0 00.434-.646 1.416 1.416 0 011.34-1.864 1.416 1.416 0 011.334 1.885.469.469 0 00.442.625h3.246c.95 0 1.724-.773 1.724-1.724v-2.675A2.354 2.354 0 0016 9.255a2.354 2.354 0 00-2.352-2.351zm0 3.765a1.41 1.41 0 01-.47-.08.468.468 0 00-.626.441v3.246a.787.787 0 01-.786.787H9.09a2.354 2.354 0 00-2.346-2.51 2.354 2.354 0 00-2.346 2.51H1.724a.787.787 0 01-.786-.787v-2.675a2.354 2.354 0 002.51-2.346A2.354 2.354 0 00.938 6.91V4.234c0-.433.352-.786.786-.786h3.245a.468.468 0 00.442-.625A1.416 1.416 0 016.744.938a1.416 1.416 0 011.334 1.885.469.469 0 00.442.625h3.246c.433 0 .786.353.786.786V7.48a.469.469 0 00.625.442 1.416 1.416 0 011.885 1.333c0 .78-.634 1.414-1.414 1.414z" /><path fill="#FFF" d="M13.648 6.904c-.053 0-.106.001-.158.005V4.234c0-.95-.774-1.724-1.724-1.724H9.09A2.354 2.354 0 006.745 0a2.354 2.354 0 00-2.346 2.51H1.724C.774 2.51 0 3.284 0 4.234V7.48a.469.469 0 00.625.442A1.416 1.416 0 012.51 9.255 1.416 1.416 0 01.625 10.59a.468.468 0 00-.625.44v3.246C0 15.226.773 16 1.724 16H4.97a.469.469 0 00.434-.646 1.416 1.416 0 011.34-1.864 1.416 1.416 0 011.334 1.885.469.469 0 00.442.625h3.246c.95 0 1.724-.773 1.724-1.724v-2.675A2.354 2.354 0 0016 9.255a2.354 2.354 0 00-2.352-2.351z" /></g></symbol><symbol viewBox="0 0 12 14" id="ic-toolbar-stop"><g transform="translate(-2 -1)" stroke="#333" fill="none" fill-rule="evenodd"><rect x="2.5" y="1.5" width="4" height="13" rx="1" /><rect x="9.5" y="1.5" width="4" height="13" rx="1" /></g></symbol><symbol viewBox="0 0 12 14" id="ic-toolbar-stop-disabled"><g transform="translate(-2 -1)" stroke="#d6dadb" fill="none" fill-rule="evenodd"><rect x="2.5" y="1.5" width="4" height="13" rx="1" /><rect x="9.5" y="1.5" width="4" height="13" rx="1" /></g></symbol><symbol viewBox="0 0 16 16" id="ic-trade-active"><path fill="#2A3052" fill-rule="evenodd" d="M1 8h2a1 1 0 011 1v7H0V9a1 1 0 011-1zm12-8h2a1 1 0 011 1v15h-4V1a1 1 0 011-1zM7 4h2a1 1 0 011 1v11H6V5a1 1 0 011-1z" /></symbol><symbol class="inline-icon" viewBox="0 0 16 16" id="ic-unknown"><path fill="#B0B3BF" fillRule="evenodd" d="M7 10.4L7.4 9 8 7.9l1-1c.4-.5.6-1 .6-1.5 0-.6-.1-1-.4-1.3-.2-.3-.6-.4-1.2-.4-.5 0-.9.1-1.2.4-.3.3-.4.6-.4 1H5c0-.7.3-1.4.9-1.9.5-.5 1.2-.7 2.1-.7 1 0 1.7.3 2.2.8.5.5.8 1.1.8 2 0 .9-.4 1.7-1.2 2.6l-.8.8c-.4.4-.5 1-.5 1.7H7zm0 2.3c0-.2 0-.4.2-.5l.6-.3c.3 0 .5.1.6.3.2.1.2.3.2.5 0 .3 0 .4-.2.6l-.6.2c-.2 0-.4 0-.6-.2a.8.8 0 01-.2-.6z" /></symbol><symbol viewBox="0 0 16 16" id="icon-info-blue"><g fill="none"><circle cx="8" cy="8" r="8" fill="#2196F3" /><g fill="#FFF" transform="translate(6.5 4)"><circle cx="1.5" cy="1" r="1" /><rect width="2" height="5" x=".5" y="3" rx="1" /></g></g></symbol><symbol viewBox="0 0 16 16" id="icon-info-outline"><path fill="#333" fill-rule="evenodd" d="M8 0a8 8 0 110 16A8 8 0 018 0zm0 1a7 7 0 100 14A7 7 0 008 1zm0 6a.5.5 0 01.5.5v4a.5.5 0 11-1 0v-4A.5.5 0 018 7zm0-2.5A.75.75 0 118 6a.75.75 0 010-1.5z" /></symbol><symbol viewBox="0 0 12 14" id="new-file"><g fill="none" fill-rule="evenodd" stroke="#333"><path d="M2 1h6.086a1 1 0 01.707.293L10 2.5l.707.707a1 1 0 01.293.707V12a1 1 0 01-1 1H2a1 1 0 01-1-1V2a1 1 0 011-1z" /><g transform="translate(3.5 5)"><rect width="4" height="1" x=".5" y="2.5" rx=".5" /><rect width="1" height="4" x="2.5" y=".5" rx=".5" /></g></g></symbol><symbol class="trade-type-icon" viewBox="0 0 16 16" id="notouch"><g fill="none"><path class="transparent" d="M0 0h16v16H0z" /><path class="color1-fill" fill="#2A3052" d="M.068.07h15.774V2.1H.068V.07zm13.769 8.007c0-1.13.878-2.03 1.983-2.054v6.646H9.33c0-1.107.878-2.03 1.983-2.03h1.104L9.059 7.2l-5.363 5.515V9.831l5.363-5.516 4.778 4.893V8.077z" /><path class="color2-fill important" fill="#F93" d="M.068 12.692v2.123h1.6l2.05-2.123z" /></g></symbol><symbol class="trade-type-icon" viewBox="0 0 16 16" id="onetouch"><g fill="none"><path class="transparent" d="M0 0h16v16H0z" /><path class="color1-fill" fill="#2A3052" d="M11.989 2.1h1.983V.07h1.96V2.1h-1.938v7.408c-1.081 0-1.983-.9-1.983-2.031V5.585l-6.94 7.107V9.785l5.52-5.654H8.745c-1.082 0-1.983-.9-1.983-2.031H.158V.07h11.83V2.1z" /><path class="color2-fill important" fill="#F93" d="M.158 12.692v2.123H3.02l2.05-2.123z" /></g></symbol><symbol viewBox="0 0 13 12" id="open"><g fill="none" fill-rule="evenodd" stroke="#333"><path d="M8.5 11.5h-7a1 1 0 01-1-1V2.75A.75.75 0 011.25 2 .75.75 0 002 1.25.75.75 0 012.75.5h1.5a.75.75 0 01.75.75c0 .414.336.75.75.75H8.5a1 1 0 011 1v1.5" /><path d="M.939 10.184l1.833-5.5A1 1 0 013.721 4h6.892a1 1 0 01.948 1.316l-1.833 5.5a1 1 0 01-.949.684H1.887a1 1 0 01-.948-1.316z" /></g></symbol><symbol viewBox="0 0 13 15" id="performance-window"><path fill="none" fill-rule="nonzero" stroke="#333" d="M12.455 8.07l.005.022-.03-.121.03-.12-.006.027c.008-.072-.03-.182-.21-.333a1.392 1.392 0 00-.192-.135l-.011-.007L2.627 1.54a.526.526 0 00-.204-.059 2.316 2.316 0 00-.32-.01l-.109.002c-.323 0-.441.076-.498.214a.708.708 0 00-.042.285v12c0 .115.01.2.046.281.061.14.182.216.494.216l.108.001c.164.002.24 0 .321-.01.09-.01.155-.03.193-.052l9.436-5.876c.075-.044.139-.09.192-.135.18-.152.218-.262.21-.332zm0-.192l-.001.001v-.003z" /></symbol><symbol class="trade-type-icon" viewBox="0 0 16 16" id="put"><g fill="none"><path class="transparent" d="M0 0h16v16H0z" /><path class="color1-fill" fill="#2A3052" d="M8.631 14.862c0-1.131.901-2.031 1.983-2.031h1.848L4.912 5.1V2.215l8.97 9.185V9.508c0-1.131.901-2.031 1.983-2.031v7.408H8.63v-.023z" /><path class="color2-fill important" fill="#F93" d="M.045 2.215V.092h2.817l2.05 2.123z" /></g></symbol><symbol class="trade-type-icon" viewBox="0 0 16 16" id="put_barrier"><g fill="none"><path class="transparent" d="M0 0h16v16H0z" /><path class="color1-fill" fill="#2A3052" d="M10.14 8.706l3.787 3.794v-2.326h1.983v5.713H8.248c0-1.084.879-1.987 1.983-1.987h2.276L7.324 8.706H.135V6.72H15.91v1.987h-5.77z" /><path class="color2-fill important" fill="#F93" d="M3.515 2.113H.135V5.5h2.073V3.626L4.078 5.5h2.818z" /></g></symbol><symbol class="trade-type-icon" viewBox="0 0 16 16" id="putspread"><g fill="none"><path d="M0 0h16v16H0z" /><path class="color1-fill" fill="#2A3052" d="M0 16h6.56v-1.996H0zM0 2h16V.004H0zm15.984 7h-4.988L9 7.004h3.167l-.572-.58a1.981 1.981 0 010-2.818l4.389 4.396V9z" /><path d="M7.741 16v-.343a1.653 1.653 0 011.676-1.653h1.524L5.829 8.937H0V6.941h6.651l5.654 5.653V10.31H14.3V16H7.74z" fill="#F93" /></g></symbol><symbol class="trade-type-icon" viewBox="0 0 16 16" id="range"><g fill="none"><path class="color1-fill" d="M7.82 9.014h-.023V7.031h4.237l-.541-.54a2.013 2.013 0 010-2.818l4.372 4.35-4.395 4.394a2.013 2.013 0 010-2.817l.586-.586H7.82zM4.71 6.22h1.983v3.56H4.71V6.22zM.135.158H15.91V2.14H.135V.158zm0 13.769H15.91v1.983H.135v-1.983z" fill="#336" /><path fill="#F93" d="M.135 7.008h3.516v1.984H.135z" /></g></symbol><symbol viewBox="0 0 12 14" id="rearrange"><g fill="none" fill-rule="evenodd" stroke="#333" transform="translate(-1 -1)"><path stroke-linecap="round" d="M1.5 1.5v13" /><rect width="9" height="3" x="3.5" y="1.5" rx="1" /><rect width="7" height="3" x="3.5" y="6.5" rx="1" /><rect width="5" height="3" x="3.5" y="11.5" rx="1" /></g></symbol><symbol viewBox="0 0 11 11" id="redo"><g fill="none" fill-rule="evenodd" stroke="#333" stroke-linecap="round" stroke-linejoin="round"><path d="M8 0l2 2-1.995 2" /><path d="M9 2H5a4 4 0 100 8h2" /></g></symbol><symbol class="trade-type-icon" viewBox="0 0 16 16" id="resetcall"><g fill="none"><path d="M0 0h16v16H0z" /><path class="color1-fill" fill="#2A3052" d="M5 9.396l2-2.003V0H5zM0 0h4v1.996H0zm7 16v-5.59l-2 1.918V16zM8.87 0c0 1.188.964 2.151 2.152 2.151h1.253L7 7.393v3.016l6.849-6.774v1.36A2.15 2.15 0 0016 7.145V0H8.87z" /><path fill="#F93" d="M0 11h3.331l2.084-2H0z" /><path class="color1-fill" fill="#2A3052" d="M9 14h7v1.996H9zm-9 0h4v1.996H0z" /></g></symbol><symbol class="trade-type-icon" viewBox="0 0 16 16" id="resetput"><g fill="none"><path d="M0 0h16v16H0z" /><path class="color1-fill" fill="#2A3052" d="M5 6.604l2 2.003V16H5zM0 16h4v-1.996H0zM7 0v5.59L5 3.673V0zm1.87 16c0-1.188.964-2.151 2.152-2.151h1.253L7 8.607V5.591l6.849 6.774v-1.36A2.15 2.15 0 0116 8.855V16H8.87z" /><path fill="#F93" d="M0 5h3.331l2.084 2H0z" /><path class="color1-fill" fill="#2A3052" d="M9 2h7V.004H9zM0 2h4V.004H0z" /></g></symbol><symbol viewBox="0 0 14 16" id="run-icon"><path fill="#FFF" fill-rule="nonzero" d="M13.207 6.841L2.284.158C1.961-.03 1.56.002 1.258.002.046.002.052.91.052 1.14v13.661c0 .195-.006 1.139 1.206 1.139.302 0 .703.03 1.026-.156L13.207 9.1c.897-.518.742-1.13.742-1.13s.155-.61-.742-1.129z" /></symbol><symbol class="trade-type-icon" viewBox="0 0 16 16" id="runhigh"><g fill="none"><path d="M0 0h16v16H0z" /><path class="color1-fill" fill="#2A3052" d="M10 8h1.996v8H10zm-4 4h1.996v4H6z" /><path fill="#F93" d="M0 11.288h1.906l2.094-2H0z" /><path class="color1-fill" d="M5.379 0A1.996 1.996 0 007.36 1.989h1.158L4 6.476v2.781L9.966 3.36v1.28c0 1.102.893 1.996 1.996 1.996V.03L5.379 0zM14 0h1.996v16H14zM2 14h1.996v1.996H2z" fill="#2A3052" /></g></symbol><symbol class="trade-type-icon" viewBox="0 0 16 16" id="runlow"><g fill="none"><path d="M0 0h16v16H0z" /><path class="color1-fill" fill="#2A3052" d="M0 0h1.996v16H0zm4 5h1.996v11H4zm4 8h1.996v3H8zm4 1h1.996v1.996H12z" /><path fill="#F93" d="M4 2V0h1.799L8 2z" /><path class="color1-fill" d="M9.364 11.28c0-1.098.89-1.989 1.988-1.989h1.158L8 4.781V2l5.966 5.897v-1.25a1.989 1.989 0 011.988-1.996v6.606l-6.59.023z" fill="#2A3052" /></g></symbol><symbol viewBox="0 0 12 12" id="save"><g fill="none" fill-rule="evenodd" transform="translate(-2 -2)"><path d="M0 0h16v16H0z" /><path stroke="#333" d="M2.667 2.5a.167.167 0 00-.167.167v10.666c0 .092.075.167.167.167h10.666a.167.167 0 00.167-.167V4.414a.5.5 0 00-.146-.353l-1.415-1.415a.5.5 0 00-.353-.146h-8.92z" /><rect width="7" height="3" x="4.5" y="2.5" stroke="#333" rx=".667" /><rect width="7" height="4" x="4.5" y="9.5" stroke="#333" rx=".667" /></g></symbol><symbol viewBox="0 0 48 43" id="shape"><path fill="#2A3052" fill-rule="nonzero" d="M0 0v32.06h48V0H0zm44.832 29.015H3.168V3.14h41.76v25.876h-.096zM5 5h38v22H5V5zm25.528 34.86h2.976V43H13.92v-3.14h3.552v-7.8h13.056v7.8z" /></symbol><symbol viewBox="0 0 14 16" id="stop-icon"><g fill="#FFF" fill-rule="evenodd" transform="translate(-1)"><rect width="6" height="16" x="1" rx="1" /><rect width="6" height="16" x="9" rx="1" /></g></symbol><symbol class="trade-type-icon" viewBox="0 0 16 16" id="tickhigh"><g fill="none"><path d="M0 0h16v16H0z" /><path fill="#F93" d="M3 10.106l5-4.4V3L3 7.4z" /><path class="color1-fill" d="M9.375 12c0-1.07.897-1.937 2.003-1.937h1.16L8 5.706V3l5.997 5.733V7.515c0-1.07.897-1.937 2.003-1.937V12H9.375zm.553-12L7.945 1.966 5.962 0H0v2h16V0zM0 14h16v2H0z" fill="#2A3052" /><path d="M0 8.38l3 1.726V7.399a1011.263 1011.263 0 00-3-1.768V8.38z" fill="#F93" /></g></symbol><symbol class="trade-type-icon" viewBox="0 0 16 16" id="ticklow"><g fill="none"><path d="M0 0h16v16H0z" /><path fill="#F93" d="M3 5.894l5 4.4V13L3 8.6z" /><path class="color1-fill" d="M9.375 4c0 1.07.897 1.937 2.003 1.937h1.16L8 10.294V13l5.997-5.733v1.218c0 1.07.897 1.937 2.003 1.937V4H9.375zm.553 12l-1.983-1.965L5.962 16H0v-2h16v2zM0 2h16V0H0z" fill="#2A3052" /><path d="M0 7.62l3-1.726v2.707a1011.263 1011.263 0 01-3 1.768V7.62z" fill="#F93" /></g></symbol><symbol viewBox="0 0 11 11" id="undo"><g fill="none" fill-rule="evenodd" stroke="#333" stroke-linecap="round" stroke-linejoin="round"><path d="M3 0L1 2l1.995 2" /><path d="M2 2h4a4 4 0 110 8H4" /></g></symbol><symbol class="trade-type-icon" viewBox="0 0 16 16" id="unknown"><path fill="#B0B3BF" d="M7 10.4L7.4 9 8 7.9l1-1c.4-.5.6-1 .6-1.5 0-.6-.1-1-.4-1.3-.2-.3-.6-.4-1.2-.4-.5 0-.9.1-1.2.4-.3.3-.4.6-.4 1H5c0-.7.3-1.4.9-1.9.5-.5 1.2-.7 2.1-.7 1 0 1.7.3 2.2.8.5.5.8 1.1.8 2 0 .9-.4 1.7-1.2 2.6l-.8.8c-.4.4-.5 1-.5 1.7H7zm0 2.3c0-.2 0-.4.2-.5l.6-.3c.3 0 .5.1.6.3.2.1.2.3.2.5 0 .3 0 .4-.2.6l-.6.2c-.2 0-.4 0-.6-.2a.8.8 0 01-.2-.6z" /></symbol><symbol class="trade-type-icon" viewBox="0 0 16 16" id="upordown"><g fill="none"><path class="color1-fill" d="M8.248 6.287l4.146-4.146h-1.51A1.64 1.64 0 019.24.496v-.36h6.536v5.047h-1.983V3.538l-2.75 2.75h4.778V8.27H.045V6.287h8.203zM.045 13.95H15.82v1.983H.045V13.95z" fill="#336" /><path fill="#F93" d="M4.44 10.118H.044v1.983h5.228L8.338 9.06H5.521z" /></g></symbol><symbol viewBox="0 0 15 15" id="zoom-in"><g fill="none" fill-rule="evenodd" transform="translate(-1 -1)"><path d="M0 0h16v16H0z" /><circle cx="7.5" cy="7.5" r="5.5" stroke="#333" /><rect width="5" height="1" x="5" y="7.5" stroke="#333" rx=".5" /><rect width="1" height="5" x="7.5" y="5" stroke="#333" rx=".5" /><path stroke="#333" stroke-linecap="round" d="M11.5 11.5l3.565 3.565" /></g></symbol><symbol viewBox="0 0 15 15" id="zoom-out"><g fill="none" fill-rule="evenodd" transform="translate(-1 -1)"><path d="M0 0h16v16H0z" /><circle cx="7.5" cy="7.5" r="5.5" stroke="#333" /><rect width="5" height="1" x="5" y="7.5" stroke="#333" rx=".5" /><path stroke="#333" stroke-linecap="round" d="M11.5 11.5l3.565 3.565" /></g></symbol></defs><use id="asiand-usage" xlink:href="#asiand" class="sprite-symbol-usage" /><use id="asianu-usage" xlink:href="#asianu" class="sprite-symbol-usage" /><use id="buy-price-usage" xlink:href="#buy-price" class="sprite-symbol-usage" /><use id="call-usage" xlink:href="#call" class="sprite-symbol-usage" /><use id="call_barrier-usage" xlink:href="#call_barrier" class="sprite-symbol-usage" /><use id="calle_light-usage" xlink:href="#calle_light" class="sprite-symbol-usage" /><use id="callspread-usage" xlink:href="#callspread" class="sprite-symbol-usage" /><use id="contract-completed-usage" xlink:href="#contract-completed" class="sprite-symbol-usage" /><use id="contract-pending-usage" xlink:href="#contract-pending" class="sprite-symbol-usage" /><use id="digitdiff-usage" xlink:href="#digitdiff" class="sprite-symbol-usage" /><use id="digiteven-usage" xlink:href="#digiteven" class="sprite-symbol-usage" /><use id="digitmatch-usage" xlink:href="#digitmatch" class="sprite-symbol-usage" /><use id="digitodd-usage" xlink:href="#digitodd" class="sprite-symbol-usage" /><use id="digitover-usage" xlink:href="#digitover" class="sprite-symbol-usage" /><use id="digitunder-usage" xlink:href="#digitunder" class="sprite-symbol-usage" /><use id="expirymiss-usage" xlink:href="#expirymiss" class="sprite-symbol-usage" /><use id="expiryrange-usage" xlink:href="#expiryrange" class="sprite-symbol-usage" /><use id="expiryrangee-usage" xlink:href="#expiryrangee" class="sprite-symbol-usage" /><use id="google-drive-active-usage" xlink:href="#google-drive-active" class="sprite-symbol-usage" /><use id="ic-arrow-1-usage" xlink:href="#ic-arrow-1" class="sprite-symbol-usage" /><use id="ic-arrow-2-usage" xlink:href="#ic-arrow-2" class="sprite-symbol-usage" /><use id="ic-check-usage" xlink:href="#ic-check" class="sprite-symbol-usage" /><use id="ic-close-usage" xlink:href="#ic-close" class="sprite-symbol-usage" /><use id="ic-cross-usage" xlink:href="#ic-cross" class="sprite-symbol-usage" /><use id="ic-entryspot-usage" xlink:href="#ic-entryspot" class="sprite-symbol-usage" /><use id="ic-exitspot-usage" xlink:href="#ic-exitspot" class="sprite-symbol-usage" /><use id="ic-id-usage" xlink:href="#ic-id" class="sprite-symbol-usage" /><use id="ic-logo-usage" xlink:href="#ic-logo" class="sprite-symbol-usage" /><use id="ic-loss-usage" xlink:href="#ic-loss" class="sprite-symbol-usage" /><use id="ic-profit-usage" xlink:href="#ic-profit" class="sprite-symbol-usage" /><use id="ic-rename-usage" xlink:href="#ic-rename" class="sprite-symbol-usage" /><use id="ic-search-usage" xlink:href="#ic-search" class="sprite-symbol-usage" /><use id="ic-stage-1-usage" xlink:href="#ic-stage-1" class="sprite-symbol-usage" /><use id="ic-stage-2-usage" xlink:href="#ic-stage-2" class="sprite-symbol-usage" /><use id="ic-stage-3-usage" xlink:href="#ic-stage-3" class="sprite-symbol-usage" /><use id="ic-stage-4-usage" xlink:href="#ic-stage-4" class="sprite-symbol-usage" /><use id="ic-start-usage" xlink:href="#ic-start" class="sprite-symbol-usage" /><use id="ic-toolbar-stop-usage" xlink:href="#ic-toolbar-stop" class="sprite-symbol-usage" /><use id="ic-toolbar-stop-disabled-usage" xlink:href="#ic-toolbar-stop-disabled" class="sprite-symbol-usage" /><use id="ic-trade-active-usage" xlink:href="#ic-trade-active" class="sprite-symbol-usage" /><use id="ic-unknown-usage" xlink:href="#ic-unknown" class="sprite-symbol-usage" /><use id="icon-info-blue-usage" xlink:href="#icon-info-blue" class="sprite-symbol-usage" /><use id="icon-info-outline-usage" xlink:href="#icon-info-outline" class="sprite-symbol-usage" /><use id="new-file-usage" xlink:href="#new-file" class="sprite-symbol-usage" /><use id="notouch-usage" xlink:href="#notouch" class="sprite-symbol-usage" /><use id="onetouch-usage" xlink:href="#onetouch" class="sprite-symbol-usage" /><use id="open-usage" xlink:href="#open" class="sprite-symbol-usage" /><use id="performance-window-usage" xlink:href="#performance-window" class="sprite-symbol-usage" /><use id="put-usage" xlink:href="#put" class="sprite-symbol-usage" /><use id="put_barrier-usage" xlink:href="#put_barrier" class="sprite-symbol-usage" /><use id="putspread-usage" xlink:href="#putspread" class="sprite-symbol-usage" /><use id="range-usage" xlink:href="#range" class="sprite-symbol-usage" /><use id="rearrange-usage" xlink:href="#rearrange" class="sprite-symbol-usage" /><use id="redo-usage" xlink:href="#redo" class="sprite-symbol-usage" /><use id="resetcall-usage" xlink:href="#resetcall" class="sprite-symbol-usage" /><use id="resetput-usage" xlink:href="#resetput" class="sprite-symbol-usage" /><use id="run-icon-usage" xlink:href="#run-icon" class="sprite-symbol-usage" /><use id="runhigh-usage" xlink:href="#runhigh" class="sprite-symbol-usage" /><use id="runlow-usage" xlink:href="#runlow" class="sprite-symbol-usage" /><use id="save-usage" xlink:href="#save" class="sprite-symbol-usage" /><use id="shape-usage" xlink:href="#shape" class="sprite-symbol-usage" /><use id="stop-icon-usage" xlink:href="#stop-icon" class="sprite-symbol-usage" /><use id="tickhigh-usage" xlink:href="#tickhigh" class="sprite-symbol-usage" /><use id="ticklow-usage" xlink:href="#ticklow" class="sprite-symbol-usage" /><use id="undo-usage" xlink:href="#undo" class="sprite-symbol-usage" /><use id="unknown-usage" xlink:href="#unknown" class="sprite-symbol-usage" /><use id="upordown-usage" xlink:href="#upordown" class="sprite-symbol-usage" /><use id="zoom-in-usage" xlink:href="#zoom-in" class="sprite-symbol-usage" /><use id="zoom-out-usage" xlink:href="#zoom-out" class="sprite-symbol-usage" /></svg>