<svg xmlns="http://www.w3.org/2000/svg" xmlns:xlink="http://www.w3.org/1999/xlink"><defs><style>
    .sprite-symbol-usage {display: none;}
    .sprite-symbol-usage:target {display: inline;}
  </style><symbol viewBox="0 0 16 16" id="asiand"><g fill="none"><path d="M8 12v2H0v-2h8zm8-6v2H0V6h16zm0-6v2H0V0h16z" fill="var(--brand-secondary)" /><path d="M9.414 8L14 12.59v-1.6A1.99 1.99 0 0115.99 9H16v5a2 2 0 01-2 2H9v-.01A1.99 1.99 0 0110.986 14h1.6l-6-6h2.828zm-6-6l3 3H3.586l-3-3h2.828z" fill="var(--brand-red-coral)" /></g></symbol><symbol viewBox="0 0 16 16" id="asianu"><g fill="none"><path d="M16 14v2H0v-2h16zm0-6v2H0V8h16zM8 2v2H0V2h8z" fill="var(--brand-secondary)" /><path d="M6.414 11l-3 3H.586l3-3h2.828zM14 0a2 2 0 012 2v5h-.01A1.99 1.99 0 0114 5.014v-1.6L9.414 8H6.59l6-6h-1.6A1.99 1.99 0 019 .01V0h5z" fill="var(--brand-red-coral)" /></g></symbol><symbol viewBox="0 0 16 16" id="buy-price"><defs><rect id="buy-price_a" width="16" height="16" rx="2.667" /></defs><g fill="none" fill-rule="evenodd"><use fill="#F2F3F4" fill-rule="nonzero" xlink:href="#buy-price_a" /><path fill="#333" fill-rule="nonzero" d="M7.482 13v-1.067c-.577-.054-1.063-.19-1.457-.406A3.805 3.805 0 015 10.715l1.025-.952c.22.232.463.424.728.575.266.15.558.249.877.295V8.545c-.858-.178-1.473-.456-1.844-.835-.372-.379-.558-.85-.558-1.415 0-.611.191-1.11.575-1.497.383-.387.943-.622 1.679-.708V3H8.78v1.09c.455.055.854.169 1.195.343.342.174.638.408.888.702l-1.036.95a2.389 2.389 0 00-.49-.417 2.12 2.12 0 00-.694-.278v1.926c.805.185 1.399.452 1.782.8.383.348.575.82.575 1.415 0 .573-.18 1.075-.54 1.508-.361.434-.921.716-1.68.847V13H7.482zm-.683-6.752c0 .225.066.399.2.522.132.124.343.228.631.314V5.367c-.288.061-.5.168-.632.319a.82.82 0 00-.2.562zm2.63 3.41a.92.92 0 00-.148-.492c-.099-.159-.311-.288-.638-.389v1.833c.266-.077.463-.199.592-.365a.928.928 0 00.194-.586z" mask="url(#buy-price_b)" /></g></symbol><mask id="buy-price_b" fill="#fff"><use xlink:href="#buy-price_a" /></mask><symbol viewBox="0 0 16 16" id="call"><g fill="none"><path d="M14 0H9v.01A1.99 1.99 0 0010.99 2h1.6L4 10.586v2.828l10-10v1.6A1.99 1.99 0 0015.99 7H16V2a2 2 0 00-2-2z" fill="var(--brand-red-coral)" /><path fill="var(--brand-secondary)" d="M1.414 16H0v-2h3.414L2 15.414z" /></g></symbol><symbol viewBox="0 0 16 16" id="call_barrier"><g fill-rule="nonzero" fill="none"><path fill="var(--brand-secondary)" d="M16 10H0V8h16z" /><path d="M3 11v1.586L4.586 11h2.828l-4 4H1v-4h2zM14 1a2 2 0 012 2v4.004h-1.727a1.973 1.973 0 01-.273-.99v-1.6L10.418 8H7.59l5-5h-1.6A1.99 1.99 0 019 1.01V1h5z" fill="var(--brand-red-coral)" /></g></symbol><symbol viewBox="0 0 16 16" id="callspread"><g fill="none"><path d="M16 14v2H0v-2h16zm-.277-7a1.94 1.94 0 010 2 1.95 1.95 0 01-.309.414l-3.535 3.536a1.989 1.989 0 01-.007-2.822L13 9H8.414l2-2zM5 0v2H0V0h5z" fill="var(--brand-secondary)" /><path d="M12 0H7v.01A1.99 1.99 0 008.99 2h1.6l-5 5H0v2h6.414l2-2L12 3.414V5h2V2a2 2 0 00-2-2z" fill="var(--brand-red-coral)" /></g></symbol><symbol viewBox="0 0 16 16" id="contract-completed"><path fill="#4BB4B3" fill-rule="evenodd" d="M7.758 15.515A7.758 7.758 0 107.758 0a7.758 7.758 0 000 15.515zm0-.97a6.788 6.788 0 110-13.575 6.788 6.788 0 010 13.575zM6.475 9.863l-1.668-1.67a.469.469 0 00-.668 0 .47.47 0 000 .668l1.997 2a.474.474 0 00.672 0l5.053-5.053a.47.47 0 000-.668.469.469 0 00-.668 0L6.475 9.863z" /></symbol><symbol viewBox="0 0 16 16" id="contract-pending"><path fill="#999" fill-rule="evenodd" d="M7.758 0a7.758 7.758 0 110 15.515A7.758 7.758 0 017.758 0zm0 .97a6.788 6.788 0 100 13.575 6.788 6.788 0 000-13.575zm0 1.94c.267 0 .484.216.484.484v4.364h2.91a.485.485 0 010 .97H7.758a.485.485 0 01-.485-.486V3.394c0-.268.217-.485.485-.485z" /></symbol><symbol viewBox="0 0 16 16" id="digitdiff"><g fill="none"><path d="M15.5 7.988V10h-5.334L12 11.835a1.989 1.989 0 010 2.815l-.006.007L8 10.663l2.248-2.248c.121-.124.225-.264.31-.415l4.942-.012zM4.006.343l4.242 4.243a2 2 0 010 2.828l-4.242 4.243L4 11.65a1.988 1.988 0 010-2.814L5.834 7 .5 7.012V5h5.334L4 3.165A1.989 1.989 0 014 .35l.006-.007zm7.987 3a1.988 1.988 0 01.126 2.695L12 6.167l-1.2 1.2a2 2 0 00-.44-1.66l-.112-.121L10 5.337l1.993-1.994z" fill="var(--brand-red-coral)" /><path d="M9.5 13v3h-2v-3h2zm0-13v3h-2V0h2z" fill="var(--brand-secondary)" /></g></symbol><symbol viewBox="0 0 16 16" id="digiteven"><g fill="none"><path d="M6 10v6H0v-6h6zM16 0v6h-6V0h6z" fill="var(--brand-secondary)" /><path d="M16 10v6h-6v-6h6zM6 0v6H0V0h6z" fill="var(--brand-red-coral)" /></g></symbol><symbol viewBox="0 0 16 16" id="digitmatch"><g fill="none"><path d="M3.507 2.343l4.241 4.243a2 2 0 010 2.828l-4.242 4.243-.006-.007a1.988 1.988 0 010-2.814L5.334 9 0 9.012V7h5.334L3.5 5.165a1.989 1.989 0 010-2.815l.007-.007zm8.986 0l.007.007a1.988 1.988 0 010 2.814L10.666 7 16 6.988V9h-5.334l1.835 1.835a1.989 1.989 0 010 2.815l-.007.007L9 10.163l.748-.749a2 2 0 000-2.828L9 5.837l3.493-3.494z" fill="var(--brand-red-coral)" /><path d="M9 12v4H7v-4h2zM9 0v4H7V0h2z" fill="var(--brand-secondary)" /></g></symbol><symbol viewBox="0 0 16 16" id="digitodd"><g fill="none"><path d="M3.5 8.875l3.5 5.25H0l3.5-5.25zm9 0l3.5 5.25H9l3.5-5.25z" fill="var(--brand-secondary)" /><path fill="var(--brand-red-coral)" d="M4.5 7.125L8 1.875l3.5 5.25z" /></g></symbol><symbol viewBox="0 0 16 16" id="digitover"><g fill="none"><path d="M5.439 13l-1.99 2H.586l2-2h2.853zM14 1a2 2 0 012 2v6h-.01A1.99 1.99 0 0114 7.01v-2.6l-6 6.02V7.586L12.586 3H9.99A1.99 1.99 0 018 1.01V1h6z" fill="var(--brand-red-coral)" /><path fill="var(--brand-secondary)" d="M0 11h16v2H0z" /></g></symbol><symbol viewBox="0 0 16 16" id="digitunder"><g fill="none"><path d="M8 5.57l6 6.02v-2.6A1.99 1.99 0 0115.99 7H16v6a2 2 0 01-2 2H8v-.01A1.99 1.99 0 019.99 13h2.596L8 8.414V5.57zM3.449 1l1.99 2H2.586l-2-2h2.863z" fill="var(--brand-red-coral)" /><path fill="var(--brand-secondary)" d="M0 3h16v2H0z" /></g></symbol><symbol viewBox="0 0 16 16" id="expirymiss"><g fill="none"><path d="M16 14v2H0v-2h16zM8 8v2H0V8h8zm8 0v2h-3.086l2-2H16z" fill="var(--brand-secondary)" /><path d="M14 3.586L10.707.293 10.7.3a1.99 1.99 0 000 2.814l.886.886H6v2h5.586l-.886.886a1.99 1.99 0 000 2.814l.007.007L14 6.414a2 2 0 000-2.828z" fill="var(--brand-red-coral)" /></g></symbol><symbol viewBox="0 0 16 16" id="expiryrange"><g fill="none"><path d="M16 14v2H0v-2h16zm0-14v2H0V0h16z" fill="var(--brand-secondary)" /><path d="M15.414 6.586l-3.293-3.293-.006.007a1.988 1.988 0 000 2.814L13 7H6v2h7l-.885.886a1.988 1.988 0 000 2.814l.006.007 3.293-3.293a2 2 0 000-2.828z" fill="var(--brand-red-coral)" /></g></symbol><symbol viewBox="0 0 48 42" id="google-drive-active"><g fill="none" fill-rule="nonzero"><path fill="#FFCF45" d="M32.001 0H15.999l14.4 27h16.002z" /><path fill="#1CA362" d="M14.241 3.078L0 27.999 8.001 42l13.965-24.438z" /><path fill="#4686F5" d="M18.312 30l-6.858 12H40.5L48 30z" /></g></symbol><symbol viewBox="0 0 16 16" id="ic-arrow-1"><path fill-opacity=".8" fill-rule="evenodd" d="M8 9.586l5.293-5.293a1 1 0 011.414 1.414l-6 6a1 1 0 01-1.414 0l-6-6a1 1 0 011.414-1.414L8 9.586z" /></symbol><symbol viewBox="0 0 16 16" id="ic-arrow-2"><path fill="#333" fill-rule="evenodd" d="M8.707.293a1 1 0 010 1.414L3.414 7H15a1 1 0 010 2L3.414 8.999l5.293 5.294a1 1 0 01-1.414 1.414l-7-7-.073-.082a1.005 1.005 0 01-.007-.008l.08.09A1.008 1.008 0 010 8.02v-.04c0-.023.002-.046.004-.07L0 8a1.008 1.008 0 01.213-.617.97.97 0 01.08-.09l7-7a1 1 0 011.414 0z" /></symbol><symbol viewBox="0 0 16 16" id="ic-check"><g fill="none" fill-rule="evenodd"><circle cx="8" cy="8" r="8" fill="#4BBFAB" /><path fill="#FFF" fill-rule="nonzero" d="M6.5 10.793l5.646-5.647a.5.5 0 01.708.708l-6 6a.5.5 0 01-.708 0l-3-3a.5.5 0 11.708-.708L6.5 10.793z" /></g></symbol><symbol viewBox="0 0 16 16" id="ic-close"><path fill="#999" fill-rule="evenodd" d="M8 0a8 8 0 110 16A8 8 0 018 0zM5.146 5.146a.5.5 0 00-.057.638l.057.07L7.293 8l-2.147 2.146a.5.5 0 00-.057.638l.057.07a.5.5 0 00.708 0L8 8.707l2.146 2.147a.5.5 0 00.765-.638l-.057-.07L8.707 8l2.147-2.146a.5.5 0 00.057-.638l-.057-.07a.5.5 0 00-.708 0L8 7.293 5.854 5.146a.5.5 0 00-.708 0z" /></symbol><symbol viewBox="0 0 16 16" id="ic-cross"><g fill="none" fill-rule="evenodd"><circle cx="8" cy="8" r="8" fill="#E31C4B" fill-rule="nonzero" /><path stroke="#FFF" stroke-linecap="round" d="M10.5 5.5l-5 5m5 0l-5-5" /></g></symbol><symbol viewBox="0 0 16 16" id="ic-entryspot"><g fill="none" fill-rule="evenodd"><rect width="16" height="16" fill="#F2F3F4" fill-rule="nonzero" rx="2.667" /><path fill="#FF444F" fill-rule="nonzero" d="M8 12.667a4.667 4.667 0 100-9.334 4.667 4.667 0 000 9.334z" /><path fill="#FFF" d="M8 10.667a2.667 2.667 0 110-5.334 2.667 2.667 0 010 5.334z" /></g></symbol><symbol viewBox="0 0 16 16" id="ic-exitspot"><g fill="none" fill-rule="evenodd"><rect width="16" height="16" fill="#F2F3F4" fill-rule="nonzero" rx="2.667" /><path fill="#85ACB0" fill-rule="nonzero" d="M8 12.667a4.667 4.667 0 100-9.334 4.667 4.667 0 000 9.334z" /><path fill="#FFF" d="M8 10.667a2.667 2.667 0 110-5.334 2.667 2.667 0 010 5.334z" /></g></symbol><symbol viewBox="0 0 16 16" id="ic-id"><defs><rect id="ic-id_a" width="16" height="16" rx="2.667" /></defs><g fill="none" fill-rule="evenodd"><use fill="#F2F3F4" fill-rule="nonzero" xlink:href="#ic-id_a" /><path fill="#333" d="M9.333 4.667A2.667 2.667 0 0112 7.333v1.334a2.667 2.667 0 01-2.667 2.666h-2a.667.667 0 01-.666-.666V5.333c0-.368.298-.666.666-.666h2zm-4.666 0c.368 0 .666.298.666.666v5.334a.667.667 0 01-1.333 0V5.333c0-.368.298-.666.667-.666zM9.333 6H8v4h1.333c.737 0 1.334-.597 1.334-1.333V7.333C10.667 6.597 10.07 6 9.333 6z" mask="url(#ic-id_b)" /></g></symbol><mask id="ic-id_b" fill="#fff"><use xlink:href="#ic-id_a" /></mask><symbol viewBox="0 0 32 32" id="ic-logo"><g fill="none" fill-rule="evenodd"><path fill="#FFF" d="M27.314 4.683c-6.24-6.244-16.392-6.244-22.634-.002-6.24 6.24-6.24 16.396 0 22.637 6.242 6.243 16.397 6.242 22.634-.001 6.248-6.24 6.248-16.396 0-22.634" /><g fill="#2A3052"><path d="M11.368 20.323s.18 1.353 1.32 1.98l-.304-.565s.58-1.523-1.016-1.415" /><path d="M16.655 10.598c1.255.447 1.659 1.785 1.659 1.785-1.597.364-1.26-1.266-1.26-1.266l-.399-.519zm8.4 14.46c-.163.16-.324.317-.49.467-3.604 2.938-6.38 1.476-6.413 1.476-1.881-.376-2.815-.381-3.344-.734-.132-.09-.558-.318-.656-.263-.384.23-.913.347-1.456-.086a2.055 2.055 0 01-.135-.123c-.6-.597-.396-1.213-.198-1.427.139-.14-.105-.534-.105-.534s-.706-1.05-1.188-1.68c-.533-.694-.605-2.07-.611-2.088l-.007-.02c-.537-.638-.593-.834-.779-1.145-.108-.184-.274-.356-.416-.504a2.63 2.63 0 01-.25-.275c-.014-.018-.018-.045-.012-.088.05-.297.69-.954.828-1.046.17-.11.9-.553.9-.553s.41-.645 1.108-.645c.63.004 1.015-.035 2.102.32l.451.143c.758.242 1.426.529 1.956.758.45.194.811.35 1.087.423.938.246 2.59-.512 2.94-.832.572-.52.819-.87.822-1.155.005-.16-.066-.3-.228-.47-.085-.078-.193-.223-.33-.36-.021-.022-.044-.048-.072-.067-1.586-1.685-1.312-2.742-1.31-2.759.068-.758-.367-1.244-.834-1.748l-.076-.095c-.024-.022-.054-.061-.054-.061.675.11 1.135.382 2.455.53.75.08.513.073 1.112.058.825-.026 1.478-.098 1.523-.286-.08-.068-.445.02-2.197-.649-.81-.31-.94-.357-1.455-.528-.662-.223-1.381-.532-1.381-.532 2.858.75 3.793 1.043 5.1 1.061.506.01.807-.052.983-.088.186-.033.763-.164.829-.364.02-.035-.554.094-1.614-.256-3.336-1.102-3.62-1.653-5.47-2.372-.645-.25-.854-.388-2.802-.891-.893-.23-2.243-.098-2.426.017-2.529-.594-3.103-.53-3.846-.37 4.948-3.172 11.63-2.6 15.96 1.728a13.08 13.08 0 011.561 1.89l.061.092a12.676 12.676 0 012.13 7.074c0 3.42-1.333 6.635-3.753 9.058zM26.607 5.39C20.754-.463 11.239-.463 5.387 5.389c-5.85 5.85-5.85 15.371 0 21.223 5.852 5.852 15.37 5.85 21.22-.001 5.857-5.85 5.857-15.372 0-21.221z" /></g></g></symbol><symbol class="inline-icon" viewBox="0 0 16 16" id="ic-loss"><path fill="#E31C4B" d="M8 12l6-8H2z" /></symbol><symbol class="inline-icon" viewBox="0 0 16 16" id="ic-profit"><path fill="#2BC8A5" d="M8 4l6 8H2z" /></symbol><symbol viewBox="0 0 16 16" id="ic-rename"><path fill="#000" fill-rule="nonzero" d="M14.246.703a2.38 2.38 0 00-3.378 0l-9.467 9.515a.534.534 0 00-.137.235L.02 14.97a.535.535 0 00.136.52.53.53 0 00.517.137l4.495-1.252a.53.53 0 00.234-.137l9.467-9.515a2.411 2.411 0 000-3.394l-.622-.626zm-11.69 9.862l7.75-7.788 2.498 2.512-7.748 7.787-2.5-2.511zm-.498 1.006l1.996 2.007-2.761.769.765-2.776zm12.06-7.602l-.563.565-2.5-2.511.564-.566a1.322 1.322 0 011.876 0l.623.626a1.34 1.34 0 010 1.886z" /></symbol><symbol viewBox="0 0 16 16" id="ic-search"><path fill="#D6D6D6" fill-rule="evenodd" d="M6.5 12a5.5 5.5 0 100-11 5.5 5.5 0 000 11zm0-12a6.5 6.5 0 014.936 10.729l4.418 4.417a.5.5 0 01-.708.708l-4.417-4.418A6.5 6.5 0 116.5 0z" /></symbol><symbol viewBox="0 0 19 20" id="ic-stage-1"><g transform="translate(0 1)" fill="none" fill-rule="evenodd"><path fill-opacity=".4" fill="#000" fill-rule="nonzero" d="M10.402 13h-1.09V5.775l-2.185.803v-.984l3.105-1.166h.17z" /><circle stroke-opacity=".4" stroke="#000" cx="9.5" cy="9" r="9" /></g></symbol><symbol viewBox="0 0 19 20" id="ic-stage-2"><g transform="translate(0 1)" fill="none" fill-rule="evenodd"><path d="M12.43 13H6.84v-.78l2.953-3.28c.437-.497.74-.9.905-1.21a2.02 2.02 0 00.25-.964c0-.446-.135-.81-.405-1.096-.27-.285-.629-.428-1.078-.428-.54 0-.958.154-1.257.46-.299.307-.448.734-.448 1.28H6.676c0-.785.253-1.42.759-1.904.505-.484 1.182-.726 2.03-.726.793 0 1.42.208 1.88.624.462.416.692.97.692 1.66 0 .84-.535 1.84-1.605 3l-2.286 2.48h4.284V13z" fill-opacity=".4" fill="#000" fill-rule="nonzero" /><circle stroke-opacity=".4" stroke="#000" cx="9.5" cy="9" r="9" /></g></symbol><symbol viewBox="0 0 19 20" id="ic-stage-3"><g transform="translate(0 1)" fill="none" fill-rule="evenodd"><path d="M8.416 8.207h.814c.512-.008.915-.143 1.207-.404.293-.262.44-.615.44-1.06 0-1-.498-1.5-1.494-1.5-.469 0-.843.133-1.122.4-.28.268-.42.623-.42 1.064H6.759c0-.676.247-1.237.741-1.685.494-.447 1.122-.67 1.884-.67.805 0 1.435.212 1.892.638.457.426.686 1.018.686 1.776 0 .37-.12.73-.36 1.078-.24.347-.568.607-.982.779.469.148.831.395 1.087.738.256.344.384.764.384 1.26 0 .766-.25 1.373-.75 1.822-.5.45-1.15.674-1.951.674-.801 0-1.452-.217-1.954-.65-.502-.434-.753-1.006-.753-1.717h1.09c0 .45.146.809.439 1.078.293.27.685.404 1.178.404.523 0 .923-.136 1.2-.41.278-.273.417-.666.417-1.177 0-.497-.152-.877-.457-1.143-.305-.266-.744-.402-1.319-.41h-.814v-.885z" fill-opacity=".4" fill="#000" fill-rule="nonzero" /><circle stroke-opacity=".4" stroke="#000" cx="9.5" cy="9" r="9" /></g></symbol><symbol viewBox="0 0 19 20" id="ic-stage-4"><g transform="translate(0 1)" fill="none" fill-rule="evenodd"><path d="M11.416 10.135H12.6v.885h-1.184V13h-1.09v-1.98H6.441v-.64l3.82-5.911h1.155v5.666zm-3.744 0h2.654V5.95l-.129.235-2.525 3.949z" fill-opacity=".4" fill="#000" fill-rule="nonzero" /><circle stroke-opacity=".4" stroke="#000" cx="9.5" cy="9" r="9" /></g></symbol><symbol viewBox="0 0 16 16" id="ic-start"><g fill="none" fill-rule="evenodd"><path fill="#333" d="M13.648 6.904c-.053 0-.106.001-.158.005V4.234c0-.95-.774-1.724-1.724-1.724H9.09A2.354 2.354 0 006.745 0a2.354 2.354 0 00-2.346 2.51H1.724C.774 2.51 0 3.284 0 4.234V7.48a.469.469 0 00.625.442A1.416 1.416 0 012.51 9.255 1.416 1.416 0 01.625 10.59a.468.468 0 00-.625.44v3.246C0 15.226.773 16 1.724 16H4.97a.469.469 0 00.434-.646 1.416 1.416 0 011.34-1.864 1.416 1.416 0 011.334 1.885.469.469 0 00.442.625h3.246c.95 0 1.724-.773 1.724-1.724v-2.675A2.354 2.354 0 0016 9.255a2.354 2.354 0 00-2.352-2.351zm0 3.765a1.41 1.41 0 01-.47-.08.468.468 0 00-.626.441v3.246a.787.787 0 01-.786.787H9.09a2.354 2.354 0 00-2.346-2.51 2.354 2.354 0 00-2.346 2.51H1.724a.787.787 0 01-.786-.787v-2.675a2.354 2.354 0 002.51-2.346A2.354 2.354 0 00.938 6.91V4.234c0-.433.352-.786.786-.786h3.245a.468.468 0 00.442-.625A1.416 1.416 0 016.744.938a1.416 1.416 0 011.334 1.885.469.469 0 00.442.625h3.246c.433 0 .786.353.786.786V7.48a.469.469 0 00.625.442 1.416 1.416 0 011.885 1.333c0 .78-.634 1.414-1.414 1.414z" /><path fill="#FFF" d="M13.648 6.904c-.053 0-.106.001-.158.005V4.234c0-.95-.774-1.724-1.724-1.724H9.09A2.354 2.354 0 006.745 0a2.354 2.354 0 00-2.346 2.51H1.724C.774 2.51 0 3.284 0 4.234V7.48a.469.469 0 00.625.442A1.416 1.416 0 012.51 9.255 1.416 1.416 0 01.625 10.59a.468.468 0 00-.625.44v3.246C0 15.226.773 16 1.724 16H4.97a.469.469 0 00.434-.646 1.416 1.416 0 011.34-1.864 1.416 1.416 0 011.334 1.885.469.469 0 00.442.625h3.246c.95 0 1.724-.773 1.724-1.724v-2.675A2.354 2.354 0 0016 9.255a2.354 2.354 0 00-2.352-2.351z" /></g></symbol><symbol viewBox="0 0 12 14" id="ic-toolbar-stop"><g transform="translate(-2 -1)" fill="none" fill-rule="evenodd"><rect x="2.5" y="1.5" width="4" height="13" rx="1" /><rect x="9.5" y="1.5" width="4" height="13" rx="1" /></g></symbol><symbol viewBox="0 0 16 16" id="ic-trade-active"><path fill="#2A3052" fill-rule="evenodd" d="M1 8h2a1 1 0 011 1v7H0V9a1 1 0 011-1zm12-8h2a1 1 0 011 1v15h-4V1a1 1 0 011-1zM7 4h2a1 1 0 011 1v11H6V5a1 1 0 011-1z" /></symbol><symbol class="inline-icon" viewBox="0 0 16 16" id="ic-unknown"><path fill="#B0B3BF" fillRule="evenodd" d="M7 10.4L7.4 9 8 7.9l1-1c.4-.5.6-1 .6-1.5 0-.6-.1-1-.4-1.3-.2-.3-.6-.4-1.2-.4-.5 0-.9.1-1.2.4-.3.3-.4.6-.4 1H5c0-.7.3-1.4.9-1.9.5-.5 1.2-.7 2.1-.7 1 0 1.7.3 2.2.8.5.5.8 1.1.8 2 0 .9-.4 1.7-1.2 2.6l-.8.8c-.4.4-.5 1-.5 1.7H7zm0 2.3c0-.2 0-.4.2-.5l.6-.3c.3 0 .5.1.6.3.2.1.2.3.2.5 0 .3 0 .4-.2.6l-.6.2c-.2 0-.4 0-.6-.2a.8.8 0 01-.2-.6z" /></symbol><symbol viewBox="0 0 16 16" id="icon-info-blue"><g fill="none"><circle cx="8" cy="8" r="8" fill="#2196F3" /><g fill="#FFF" transform="translate(6.5 4)"><circle cx="1.5" cy="1" r="1" /><rect width="2" height="5" x=".5" y="3" rx="1" /></g></g></symbol><symbol viewBox="0 0 16 16" id="icon-info-outline"><path fill="#333" fill-rule="evenodd" d="M8 0a8 8 0 110 16A8 8 0 018 0zm0 1a7 7 0 100 14A7 7 0 008 1zm0 6a.5.5 0 01.5.5v4a.5.5 0 11-1 0v-4A.5.5 0 018 7zm0-2.5A.75.75 0 118 6a.75.75 0 010-1.5z" /></symbol><symbol viewBox="0 0 16 16" id="new-file"><g fill="none" fill-rule="evenodd"><path stroke="#333" d="M4 2h6.086a1 1 0 01.707.293L12 3.5l.707.707a1 1 0 01.293.707V13a1 1 0 01-1 1H4a1 1 0 01-1-1V3a1 1 0 011-1z" /><g fill="#333" transform="translate(5.5 6)"><rect width="5" height="1" y="2" rx=".5" /><rect width="1" height="5" x="2" rx=".5" /></g></g></symbol><symbol viewBox="0 0 16 16" id="notouch"><g fill="none"><path d="M3.414 14l-2 2H0v-2h3.414zM16 0v2H0V0h16z" fill="var(--brand-secondary)" /><path d="M15.99 7A1.99 1.99 0 0014 8.99v1.6L10.414 7a2 2 0 00-2.828 0L4 10.586v2.828l5-5L12.586 12h-1.6A1.99 1.99 0 009 13.99V14h5a2 2 0 002-2V7h-.01z" fill="var(--brand-red-coral)" /></g></symbol><symbol viewBox="0 0 16 16" id="onetouch"><g fill="none"><path d="M5.424 14L4 15.426 3.426 16H0v-2h5.424zM16 0v2H0V0h16z" fill="var(--brand-secondary)" /><path d="M15.99 10H16V4a2 2 0 00-2-2H8v.01A1.99 1.99 0 009.99 4h2.6L6 10.586v2.837l8-8.009v2.6A1.99 1.99 0 0015.99 10z" fill="var(--brand-red-coral)" /></g></symbol><symbol viewBox="0 0 16 16" id="open"><g fill="none" fill-rule="evenodd" stroke="#333"><path d="M10.5 13.5h-7a1 1 0 01-1-1V4.75A.75.75 0 013.25 4 .75.75 0 004 3.25a.75.75 0 01.75-.75h1.5a.75.75 0 01.75.75c0 .414.336.75.75.75h2.75a1 1 0 011 1v1.5" /><path d="M2.939 12.184l1.833-5.5A1 1 0 015.721 6h6.892a1 1 0 01.948 1.316l-1.833 5.5a1 1 0 01-.949.684H3.887a1 1 0 01-.948-1.316z" /></g></symbol><symbol viewBox="0 0 16 16" id="performance-window"><path fill="none" stroke="#333" d="M13.455 8.07l.005.022-.03-.121.03-.12-.006.027c.008-.072-.03-.182-.21-.333a1.392 1.392 0 00-.192-.135l-.011-.007L3.627 1.54a.526.526 0 00-.204-.059 2.316 2.316 0 00-.32-.01l-.109.002c-.323 0-.441.076-.498.214a.708.708 0 00-.042.285v12c0 .115.01.2.046.281.061.14.182.216.494.216l.108.001c.164.002.24 0 .321-.01.09-.01.155-.03.193-.052l9.436-5.876c.075-.044.139-.09.192-.135.18-.152.218-.262.21-.332zm0-.192l-.001.001v-.003z" /></symbol><symbol viewBox="0 0 16 16" id="put"><g fill="none"><path d="M15.99 9A1.99 1.99 0 0014 10.99v1.6l-10-10v2.824L12.586 14h-1.6A1.99 1.99 0 009 15.99V16h5a2 2 0 002-2V9h-.01z" fill="var(--brand-red-coral)" /><path fill="var(--brand-secondary)" d="M0 2V0h1.414L2 .586 3.414 2H2z" /></g></symbol><symbol viewBox="0 0 16 16" id="put_barrier"><g fill-rule="nonzero" fill="none"><path fill="var(--brand-secondary)" d="M16 8H0V6h16z" /><path d="M10.414 8L14 11.59v-1.6c.002-.348.096-.69.273-.99H16v4a2 2 0 01-2 2H9v-.01A1.99 1.99 0 0110.986 13h1.6l-5-5h2.828zm-7-7l4 4H4.586L3 3.414V5H1V1h2.414z" fill="var(--brand-red-coral)" /></g></symbol><symbol viewBox="0 0 16 16" id="putspread"><g fill="none"><path d="M5 14v2H0v-2h5zm6.879-10.95l3.535 3.536c.12.124.225.263.309.414a1.94 1.94 0 010 2h-5.309l-2-2H13l-1.128-1.128a1.989 1.989 0 010-2.815l.007-.007zM16 0v2H0V0h16z" fill="var(--brand-secondary)" /><path d="M12 11v1.586L8.414 9l-2-2H0v2h5.586l5 5H8.99A1.99 1.99 0 007 15.99V16h5a2 2 0 002-2v-3h-2z" fill="var(--brand-red-coral)" /></g></symbol><symbol viewBox="0 0 16 16" id="range"><g fill-rule="nonzero" fill="none"><path d="M16 14v2H0v-2h16zM6 6v4H4V6h2zm10-6v2H0V0h16z" fill="var(--brand-secondary)" /><path d="M11.862 3.092L15.4 6.627a2 2 0 010 2.829l-3.538 3.535-.008-.007a1.99 1.99 0 010-2.814L13.024 9H7V7h5.941l-1.087-1.087a1.99 1.99 0 010-2.814l.008-.007zM3 7v2H0V7h3z" fill="var(--brand-red-coral)" /></g></symbol><symbol viewBox="0 0 16 16" id="rearrange"><g fill="none" fill-rule="evenodd" stroke="#333"><path stroke-linecap="round" d="M1.5 1.5v13" /><rect width="9" height="3" x="3.5" y="1.5" rx="1" /><rect width="7" height="3" x="3.5" y="6.5" rx="1" /><rect width="5" height="3" x="3.5" y="11.5" rx="1" /></g></symbol><symbol viewBox="0 0 16 16" id="redo"><g fill="none" fill-rule="evenodd" stroke="#333" stroke-linecap="round" stroke-linejoin="round"><path d="M11 3l2 2-1.995 2" /><path d="M12 5H8a4 4 0 100 8h2" /></g></symbol><symbol viewBox="0 0 16 16" id="resetcall"><g fill="none"><path d="M4 14v2H0v-2h4zm12 0v2h-6v-2h6zM8 0v16H6V0h2zM4 0v2H0V0h4z" fill="var(--brand-secondary)" /><path d="M6 8.586v2.828L5.414 12H0v-2h4.586L6 8.586zM14 0a2 2 0 012 2v5h-.01A1.99 1.99 0 0114 5.014v-1.6l-5 5V5.586L12.59 2h-1.6A1.99 1.99 0 019 .01V0z" fill="var(--brand-red-coral)" /><path fill="var(--brand-secondary)" d="M7 10v.414L7.414 10z" /></g></symbol><symbol viewBox="0 0 16 16" id="resetput"><g fill="none"><path d="M8 0v16H6V0h2zM4 14v2H0v-2h4zM4 0v2H0V0h4zm12 0v2h-6V0h6z" fill="var(--brand-secondary)" /><path d="M9 7.59l5 5v-1.6A1.99 1.99 0 0115.99 9H16v5a2 2 0 01-2 2H9v-.01A1.99 1.99 0 0110.986 14h1.6L9 10.418V7.59zM5.414 4L6 4.586v2.828L4.586 6H0V4h5.414z" fill="var(--brand-red-coral)" /></g></symbol><symbol viewBox="0 0 14 16" id="run-icon"><path fill="#FFF" fill-rule="nonzero" d="M13.207 6.841L2.284.158C1.961-.03 1.56.002 1.258.002.046.002.052.91.052 1.14v13.661c0 .195-.006 1.139 1.206 1.139.302 0 .703.03 1.026-.156L13.207 9.1c.897-.518.742-1.13.742-1.13s.155-.61-.742-1.129z" /></symbol><symbol viewBox="0 0 16 16" id="runhigh"><g fill="none"><path d="M4 14v2H2v-2h2zM16 0v16h-2V0h2zm-4 8v8h-2V8h2zm-4 4v4H6v-4h2zm-4.586-2l-2 2H0v-2h3.414z" fill="var(--brand-secondary)" /><path d="M10 0H5v.01A1.99 1.99 0 006.99 2h1.6L4 6.586v2.828l6-6v1.6A1.99 1.99 0 0011.99 7H12V2a2 2 0 00-2-2z" fill="var(--brand-red-coral)" /></g></symbol><symbol viewBox="0 0 16 16" id="runlow"><g fill="none"><path d="M16 0v16h-2V0h2zm-4 0v8h-2V0h2zM1.414 4l2 2H0V4h1.414zM8 0v4H6V0h2zM4 0v2H2V0h2z" fill="var(--brand-secondary)" /><path d="M11.99 9A1.99 1.99 0 0010 10.99v1.6l-6-6v2.824L8.586 14H6.99A1.99 1.99 0 005 15.99V16h5a2 2 0 002-2V9h-.01z" fill="var(--brand-red-coral)" /></g></symbol><symbol viewBox="0 0 16 16" id="save"><g fill="none" fill-rule="evenodd"><path d="M0 0h16v16H0z" /><path stroke="#333" d="M2.667 2.5a.167.167 0 00-.167.167v10.666c0 .092.075.167.167.167h10.666a.167.167 0 00.167-.167V4.414a.5.5 0 00-.146-.353l-1.415-1.415a.5.5 0 00-.353-.146h-8.92z" /><rect width="7" height="3" x="4.5" y="2.5" stroke="#333" rx=".667" /><rect width="7" height="4" x="4.5" y="9.5" stroke="#333" rx=".667" /></g></symbol><symbol viewBox="0 0 48 43" id="shape"><path fill="#2A3052" fill-rule="nonzero" d="M0 0v32.06h48V0H0zm44.832 29.015H3.168V3.14h41.76v25.876h-.096zM5 5h38v22H5V5zm25.528 34.86h2.976V43H13.92v-3.14h3.552v-7.8h13.056v7.8z" /></symbol><symbol viewBox="0 0 14 16" id="stop-icon"><g fill="#FFF" fill-rule="evenodd" transform="translate(-1)"><rect width="6" height="16" x="1" rx="1" /><rect width="6" height="16" x="9" rx="1" /></g></symbol><symbol viewBox="0 0 16 16" id="tickhigh"><g fill="none"><path d="M16 14v2H0v-2h16zm0-14v2H8l2-2h6zM6 0l2 2H0V0h6z" fill="var(--brand-secondary)" /><path d="M15.99 5A1.99 1.99 0 0014 6.99v1.6L9.414 4a2 2 0 00-2.828 0L2 8.586l-2-2v2.828L.586 10a2 2 0 002.828 0L8 5.414 12.586 10h-1.6A1.99 1.99 0 009 11.99V12h5a2 2 0 002-2V5h-.01z" fill="var(--brand-red-coral)" /></g></symbol><symbol viewBox="0 0 16 16" id="ticklow"><g fill="none"><path d="M16 14v2h-6l-2-2h8zm-8 0l-2 2H0v-2h8zm8-14v2H0V0h16z" fill="var(--brand-secondary)" /><path d="M14 4H9v.01A1.99 1.99 0 0010.99 6h1.6L8 10.586 3.414 6A2 2 0 00.586 6L0 6.586v2.828l2-2L6.586 12a2 2 0 002.828 0L14 7.414v1.6A1.99 1.99 0 0015.99 11H16V6a2 2 0 00-2-2z" fill="var(--brand-red-coral)" /></g></symbol><symbol viewBox="0 0 16 16" id="undo"><g fill="none" fill-rule="evenodd" stroke="#333" stroke-linecap="round" stroke-linejoin="round"><path d="M5 3L3 5l1.995 2" /><path d="M4 5h4a4 4 0 110 8H6" /></g></symbol><symbol class="trade-type-icon" viewBox="0 0 16 16" id="unknown"><path fill="#B0B3BF" d="M7 10.4L7.4 9 8 7.9l1-1c.4-.5.6-1 .6-1.5 0-.6-.1-1-.4-1.3-.2-.3-.6-.4-1.2-.4-.5 0-.9.1-1.2.4-.3.3-.4.6-.4 1H5c0-.7.3-1.4.9-1.9.5-.5 1.2-.7 2.1-.7 1 0 1.7.3 2.2.8.5.5.8 1.1.8 2 0 .9-.4 1.7-1.2 2.6l-.8.8c-.4.4-.5 1-.5 1.7H7zm0 2.3c0-.2 0-.4.2-.5l.6-.3c.3 0 .5.1.6.3.2.1.2.3.2.5 0 .3 0 .4-.2.6l-.6.2c-.2 0-.4 0-.6-.2a.8.8 0 01-.2-.6z" /></symbol><symbol viewBox="0 0 16 16" id="upordown"><g fill-rule="nonzero" fill="none"><path d="M16 14v2H0v-2h16zm0-8v2H0V6h16z" fill="var(--brand-secondary)" /><path d="M8.414 9l-3 3H0v-2h4.586l1-1h2.828zM14 0a2 2 0 012 2v3h-2V3.414L11.418 6H8.59l4-4h-1.6A1.99 1.99 0 019 .01V0h5z" fill="var(--brand-red-coral)" /></g></symbol><symbol viewBox="0 0 16 16" id="zoom-in"><g fill="none" fill-rule="evenodd"><path d="M0 0h16v16H0z" /><circle cx="7.5" cy="7.5" r="5.5" stroke="#333" /><rect width="6" height="1" x="4.5" y="7" fill="#333" rx=".5" /><rect width="1" height="6" x="7" y="4.5" fill="#333" rx=".5" /><path stroke="#333" stroke-linecap="round" d="M11.5 11.5l3.565 3.565" /></g></symbol><symbol viewBox="0 0 16 16" id="zoom-out"><g fill="none" fill-rule="evenodd"><path d="M0 0h16v16H0z" /><circle cx="7.5" cy="7.5" r="5.5" stroke="#333" /><rect width="6" height="1" x="4.5" y="7" fill="#333" rx=".5" /><path stroke="#333" stroke-linecap="round" d="M11.5 11.5l3.565 3.565" /></g></symbol></defs><use id="asiand-usage" xlink:href="#asiand" class="sprite-symbol-usage" /><use id="asianu-usage" xlink:href="#asianu" class="sprite-symbol-usage" /><use id="buy-price-usage" xlink:href="#buy-price" class="sprite-symbol-usage" /><use id="call-usage" xlink:href="#call" class="sprite-symbol-usage" /><use id="call_barrier-usage" xlink:href="#call_barrier" class="sprite-symbol-usage" /><use id="callspread-usage" xlink:href="#callspread" class="sprite-symbol-usage" /><use id="contract-completed-usage" xlink:href="#contract-completed" class="sprite-symbol-usage" /><use id="contract-pending-usage" xlink:href="#contract-pending" class="sprite-symbol-usage" /><use id="digitdiff-usage" xlink:href="#digitdiff" class="sprite-symbol-usage" /><use id="digiteven-usage" xlink:href="#digiteven" class="sprite-symbol-usage" /><use id="digitmatch-usage" xlink:href="#digitmatch" class="sprite-symbol-usage" /><use id="digitodd-usage" xlink:href="#digitodd" class="sprite-symbol-usage" /><use id="digitover-usage" xlink:href="#digitover" class="sprite-symbol-usage" /><use id="digitunder-usage" xlink:href="#digitunder" class="sprite-symbol-usage" /><use id="expirymiss-usage" xlink:href="#expirymiss" class="sprite-symbol-usage" /><use id="expiryrange-usage" xlink:href="#expiryrange" class="sprite-symbol-usage" /><use id="google-drive-active-usage" xlink:href="#google-drive-active" class="sprite-symbol-usage" /><use id="ic-arrow-1-usage" xlink:href="#ic-arrow-1" class="sprite-symbol-usage" /><use id="ic-arrow-2-usage" xlink:href="#ic-arrow-2" class="sprite-symbol-usage" /><use id="ic-check-usage" xlink:href="#ic-check" class="sprite-symbol-usage" /><use id="ic-close-usage" xlink:href="#ic-close" class="sprite-symbol-usage" /><use id="ic-cross-usage" xlink:href="#ic-cross" class="sprite-symbol-usage" /><use id="ic-entryspot-usage" xlink:href="#ic-entryspot" class="sprite-symbol-usage" /><use id="ic-exitspot-usage" xlink:href="#ic-exitspot" class="sprite-symbol-usage" /><use id="ic-id-usage" xlink:href="#ic-id" class="sprite-symbol-usage" /><use id="ic-logo-usage" xlink:href="#ic-logo" class="sprite-symbol-usage" /><use id="ic-loss-usage" xlink:href="#ic-loss" class="sprite-symbol-usage" /><use id="ic-profit-usage" xlink:href="#ic-profit" class="sprite-symbol-usage" /><use id="ic-rename-usage" xlink:href="#ic-rename" class="sprite-symbol-usage" /><use id="ic-search-usage" xlink:href="#ic-search" class="sprite-symbol-usage" /><use id="ic-stage-1-usage" xlink:href="#ic-stage-1" class="sprite-symbol-usage" /><use id="ic-stage-2-usage" xlink:href="#ic-stage-2" class="sprite-symbol-usage" /><use id="ic-stage-3-usage" xlink:href="#ic-stage-3" class="sprite-symbol-usage" /><use id="ic-stage-4-usage" xlink:href="#ic-stage-4" class="sprite-symbol-usage" /><use id="ic-start-usage" xlink:href="#ic-start" class="sprite-symbol-usage" /><use id="ic-toolbar-stop-usage" xlink:href="#ic-toolbar-stop" class="sprite-symbol-usage" /><use id="ic-trade-active-usage" xlink:href="#ic-trade-active" class="sprite-symbol-usage" /><use id="ic-unknown-usage" xlink:href="#ic-unknown" class="sprite-symbol-usage" /><use id="icon-info-blue-usage" xlink:href="#icon-info-blue" class="sprite-symbol-usage" /><use id="icon-info-outline-usage" xlink:href="#icon-info-outline" class="sprite-symbol-usage" /><use id="new-file-usage" xlink:href="#new-file" class="sprite-symbol-usage" /><use id="notouch-usage" xlink:href="#notouch" class="sprite-symbol-usage" /><use id="onetouch-usage" xlink:href="#onetouch" class="sprite-symbol-usage" /><use id="open-usage" xlink:href="#open" class="sprite-symbol-usage" /><use id="performance-window-usage" xlink:href="#performance-window" class="sprite-symbol-usage" /><use id="put-usage" xlink:href="#put" class="sprite-symbol-usage" /><use id="put_barrier-usage" xlink:href="#put_barrier" class="sprite-symbol-usage" /><use id="putspread-usage" xlink:href="#putspread" class="sprite-symbol-usage" /><use id="range-usage" xlink:href="#range" class="sprite-symbol-usage" /><use id="rearrange-usage" xlink:href="#rearrange" class="sprite-symbol-usage" /><use id="redo-usage" xlink:href="#redo" class="sprite-symbol-usage" /><use id="resetcall-usage" xlink:href="#resetcall" class="sprite-symbol-usage" /><use id="resetput-usage" xlink:href="#resetput" class="sprite-symbol-usage" /><use id="run-icon-usage" xlink:href="#run-icon" class="sprite-symbol-usage" /><use id="runhigh-usage" xlink:href="#runhigh" class="sprite-symbol-usage" /><use id="runlow-usage" xlink:href="#runlow" class="sprite-symbol-usage" /><use id="save-usage" xlink:href="#save" class="sprite-symbol-usage" /><use id="shape-usage" xlink:href="#shape" class="sprite-symbol-usage" /><use id="stop-icon-usage" xlink:href="#stop-icon" class="sprite-symbol-usage" /><use id="tickhigh-usage" xlink:href="#tickhigh" class="sprite-symbol-usage" /><use id="ticklow-usage" xlink:href="#ticklow" class="sprite-symbol-usage" /><use id="undo-usage" xlink:href="#undo" class="sprite-symbol-usage" /><use id="unknown-usage" xlink:href="#unknown" class="sprite-symbol-usage" /><use id="upordown-usage" xlink:href="#upordown" class="sprite-symbol-usage" /><use id="zoom-in-usage" xlink:href="#zoom-in" class="sprite-symbol-usage" /><use id="zoom-out-usage" xlink:href="#zoom-out" class="sprite-symbol-usage" /></svg>